<svg xmlns="http://www.w3.org/2000/svg" xmlns:xlink="http://www.w3.org/1999/xlink" width="252" height="252" viewBox="0 0 252 252">
  <defs>
    <clipPath id="clip-editIcon">
      <rect width="252" height="252"/>
    </clipPath>
  </defs>
  <g id="editIcon" clip-path="url(#clip-editIcon)">
    <path id="editIcon-2" data-name="editIcon" d="M197.579,2.462A22.1,22.1,0,0,0,181.6,8.912l-9.833,10.137L236.6,84.171l9.833-10.137a22.8,22.8,0,0,0,0-32.254L213.865,9.219A23.246,23.246,0,0,0,197.579,2.462Zm-36.873,25.5L145.343,42.7l67.6,67.579,15.671-14.437Zm-25.2,25.5L29.193,158.816a9.621,9.621,0,0,0-4.916,6.144l-22.738,77.1a9.583,9.583,0,0,0,11.984,11.98l77.126-22.731a9.622,9.622,0,0,0,7.682-6.451L203.111,121.033,188.669,106.6,81.123,214.416,37.8,227.011,28.579,217.8,41.792,172.64,148.416,66.356Zm23.353,23.653L51.009,185.233l15.671,3.379,2.151,14.437L176.991,95.229Z" transform="translate(-1.119 -2.461)" fill="#fff"/>
  </g>
</svg>
