<svg xmlns="http://www.w3.org/2000/svg" xmlns:xlink="http://www.w3.org/1999/xlink" width="217" height="217" viewBox="0 0 217 217">
  <defs>
    <clipPath id="clip-contact_icon">
      <rect width="217" height="217"/>
    </clipPath>
  </defs>
  <g id="contact_icon" clip-path="url(#clip-contact_icon)">
    <g id="Group_2" data-name="Group 2" transform="translate(-308 148)">
      <g id="Ellipse_1" data-name="Ellipse 1" transform="translate(308 -148)" fill="none" stroke="#cacaca" stroke-width="4">
        <circle cx="108.5" cy="108.5" r="108.5" stroke="none"/>
        <circle cx="108.5" cy="108.5" r="106.5" fill="none"/>
      </g>
      <g id="Group_1" data-name="Group 1" transform="translate(161 -330)">
        <g id="Path_1" data-name="Path 1" transform="translate(213 271)" fill="none">
          <path d="M42.5,10A42.5,42.5,0,0,1,85,52.5C85,75.972,65.972,79,42.5,79S0,75.972,0,52.5A42.5,42.5,0,0,1,42.5,10Z" stroke="none"/>
          <path d="M 42.5 13 C 37.16621398925781 13 31.99356079101562 14.04396057128906 27.125732421875 16.10288238525391 C 22.42246627807617 18.09218597412109 18.19785308837891 20.94070434570312 14.56928253173828 24.56928253173828 C 10.94070434570312 28.19785308837891 8.092185974121094 32.42246627807617 6.102882385253906 37.125732421875 C 4.043960571289062 41.99356079101562 3 47.16621398925781 3 52.5 C 3 55.13167953491211 3.261947631835938 57.54373168945312 3.778572082519531 59.66915893554688 C 4.259490966796875 61.647705078125 4.9774169921875 63.44109344482422 5.912384033203125 64.99950408935547 C 7.663375854492188 67.91803741455078 10.22576141357422 70.15798950195312 13.74595642089844 71.84737396240234 C 21.3708381652832 75.50663757324219 32.56014633178711 76 42.5 76 C 52.43985366821289 76 63.62915802001953 75.50663757324219 71.25404357910156 71.84737396240234 C 74.77423858642578 70.15798950195312 77.33662414550781 67.91802978515625 79.08761596679688 64.99950408935547 C 80.0225830078125 63.44109344482422 80.74050903320312 61.647705078125 81.22142791748047 59.66915893554688 C 81.73805236816406 57.54373168945312 82 55.13167953491211 82 52.5 C 82 47.16621398925781 80.95603942871094 41.99356079101562 78.89711761474609 37.125732421875 C 76.90781402587891 32.42246627807617 74.05929565429688 28.19786834716797 70.43071746826172 24.56928253173828 C 66.80213165283203 20.94070434570312 62.57753372192383 18.09218597412109 57.87425231933594 16.10288238525391 C 53.00643920898438 14.04396057128906 47.83378601074219 13 42.5 13 M 42.5 10 C 65.97209167480469 10 85 29.02789306640625 85 52.5 C 85 75.97209167480469 65.97209167480469 79 42.5 79 C 19.02789306640625 79 0 75.97209167480469 0 52.5 C 0 29.02789306640625 19.02789306640625 10 42.5 10 Z" stroke="none" fill="#d3d3d3"/>
        </g>
        <g id="Path_2" data-name="Path 2" transform="translate(230.386 216.681)" fill="none">
          <path d="M25.114,10A25.114,25.114,0,0,1,50.228,35.114c0,13.87-11.244,19.2-25.114,19.2S0,48.984,0,35.114A25.114,25.114,0,0,1,25.114,10Z" stroke="none"/>
          <path d="M 25.11392593383789 12.99999618530273 C 22.12724685668945 12.99999618530273 19.23148536682129 13.58426666259766 16.50710678100586 14.73658752441406 C 13.8741569519043 15.85023880004883 11.50888442993164 17.44514846801758 9.477016448974609 19.47701644897461 C 7.445144653320312 21.50888824462891 5.850234985351562 23.8741569519043 4.736587524414062 26.50710678100586 C 3.584266662597656 29.23148727416992 2.999996185302734 32.12724685668945 2.999996185302734 35.11392974853516 C 2.999996185302734 37.97703552246094 3.550685882568359 40.49066925048828 4.636764526367188 42.58500671386719 C 5.631015777587891 44.50224685668945 7.110466003417969 46.13266754150391 9.034015655517578 47.43095779418945 C 12.80229568481445 49.97432708740234 18.36263656616211 51.31868743896484 25.11392593383789 51.31868743896484 C 31.86521530151367 51.31868743896484 37.42554473876953 49.97433853149414 41.19382476806641 47.43095779418945 C 43.11737442016602 46.13266754150391 44.59682464599609 44.50225830078125 45.5910758972168 42.58500671386719 C 46.67715454101562 40.49066925048828 47.22784423828125 37.97703552246094 47.22784423828125 35.11392974853516 C 47.22784423828125 32.12724685668945 46.64357757568359 29.23148727416992 45.49125671386719 26.50710678100586 C 44.37760543823242 23.8741569519043 42.78269577026367 21.50888824462891 40.75082397460938 19.47701644897461 C 38.71895599365234 17.44514846801758 36.35368728637695 15.85023880004883 33.72073364257812 14.73658752441406 C 30.9963550567627 13.58426666259766 28.10060501098633 12.99999618530273 25.11392593383789 12.99999618530273 M 25.11392593383789 9.999996185302734 C 38.98395538330078 9.999996185302734 50.22784423828125 21.24388885498047 50.22784423828125 35.11392974853516 C 50.22784423828125 48.98395538330078 38.98395538330078 54.31868743896484 25.11392593383789 54.31868743896484 C 11.2438850402832 54.31868743896484 -3.814697265625e-06 48.98395538330078 -3.814697265625e-06 35.11392974853516 C -3.814697265625e-06 21.24388885498047 11.2438850402832 9.999996185302734 25.11392593383789 9.999996185302734 Z" stroke="none" fill="#d3d3d3"/>
        </g>
      </g>
    </g>
  </g>
</svg>
